<svg width="1116" height="176" viewBox="0 0 1116 176" fill="none" xmlns="http://www.w3.org/2000/svg">
<path d="M1021.07 136.137C1020.9 136.354 1020.74 136.571 1020.57 136.785C1020.55 136.814 1020.52 136.841 1020.5 136.87C1020.69 136.628 1020.88 136.384 1021.07 136.137Z" fill="white"/>
<path d="M1022.16 134.603C1021.85 135.06 1021.53 135.51 1021.2 135.955C1021.6 135.416 1021.98 134.868 1022.35 134.311C1022.29 134.408 1022.22 134.506 1022.16 134.603Z" fill="white"/>
<path d="M1001.37 135.765L1000.55 135.76C1000.43 135.759 1000.31 135.754 1000.19 135.752C1000.58 135.76 1000.98 135.765 1001.37 135.765Z" fill="white"/>
<path d="M1012.52 133.227C1011.5 133.764 1010.41 134.225 1009.26 134.598C1009.84 134.408 1010.41 134.195 1010.96 133.962C1011.33 133.806 1011.69 133.642 1012.05 133.468C1012.21 133.39 1012.36 133.308 1012.52 133.227Z" fill="white"/>
<path d="M1022.86 109.871C1022.77 116.83 1020.95 122.862 1017.5 127.156C1014.01 131.517 1008.71 134.236 1001.37 134.237C997.005 134.237 992.901 133.777 989.921 132.106C988.464 131.288 987.286 130.186 986.461 128.691C985.632 127.188 985.111 125.199 985.111 122.543C985.111 119.928 985.706 117.894 986.675 116.297C987.645 114.697 989.042 113.452 990.769 112.497C994.269 110.561 999.022 109.871 1003.82 109.871H1022.86Z" fill="white"/>
<path d="M1022.65 133.856C1022.59 133.949 1022.53 134.04 1022.47 134.133C1022.63 133.882 1022.79 133.63 1022.95 133.377C1022.85 133.537 1022.75 133.697 1022.65 133.856Z" fill="white"/>
<path d="M1024.39 132.337L1023.57 132.338C1023.4 132.643 1023.21 132.945 1023.03 133.247C1023.21 132.945 1023.4 132.642 1023.57 132.337H1024.39Z" fill="white"/>
<path d="M1013.6 132.614C1013.76 132.516 1013.92 132.417 1014.07 132.315C1014.22 132.216 1014.37 132.114 1014.52 132.012C1014.22 132.22 1013.91 132.421 1013.6 132.614Z" fill="white"/>
<path d="M1024.38 110.015L1024.37 110.704C1024.38 110.412 1024.38 110.118 1024.38 109.823C1024.38 109.887 1024.38 109.951 1024.38 110.015Z" fill="white"/>
<path d="M997.559 96.6377C997.381 96.6457 997.204 96.6566 997.028 96.6666C997.21 96.6563 997.392 96.6447 997.576 96.6365L997.559 96.6377Z" fill="white"/>
<path d="M987.087 87.6818C986.718 88.2389 986.528 88.5767 986.52 88.5907L986.519 88.5895C986.53 88.5703 986.721 88.2341 987.087 87.6818Z" fill="white"/>
<path d="M1053.44 44.7443L1053.43 44.6817C1053.4 44.5328 1053.39 44.3828 1053.37 44.2321C1053.39 44.4041 1053.41 44.5748 1053.44 44.7443Z" fill="white"/>
<path d="M1053.33 42.6795C1053.34 42.5218 1053.35 42.3651 1053.37 42.2094L1053.33 42.6795Z" fill="white"/>
<path fill-rule="evenodd" clip-rule="evenodd" d="M1080.48 0C1099.9 0 1115.65 15.7474 1115.65 35.1725V140.144C1115.65 159.569 1099.9 175.317 1080.48 175.317H970.088C950.663 175.317 934.916 159.569 934.916 140.144V35.1725C934.916 15.7474 950.663 0 970.088 0H1080.48ZM1008.88 61.9232C987.546 61.9232 978.159 74.6916 974.442 80.7739L973.668 82.0419L987.063 90.77L987.857 89.332L987.858 89.3308C987.86 89.3277 987.864 89.3213 987.869 89.3127C987.879 89.2952 987.896 89.266 987.918 89.2271C987.965 89.1488 988.036 89.0283 988.134 88.8727C988.331 88.5606 988.631 88.1058 989.033 87.5565C989.84 86.4551 991.05 84.984 992.653 83.5161C995.864 80.5759 1000.57 77.7147 1006.76 77.7147C1013.2 77.7148 1017.15 79.7171 1019.51 82.3818C1021.91 85.0833 1022.86 88.6798 1022.86 92.1814V95.0599H999.742C987.426 95.0599 979.541 99.4269 974.768 105.251C970.044 111.016 968.504 118.038 968.504 123.197C968.504 129.539 970.936 136.058 975.892 140.991C980.863 145.941 988.287 149.211 998.11 149.211C1009.99 149.211 1017.8 143.392 1022.86 136.272V147.579H1039.63V92.1814C1039.63 85.8314 1037.98 78.2798 1033.26 72.2809C1028.49 66.2184 1020.72 61.9234 1008.88 61.9232ZM1054.73 62.9031V146.925H1072.15V62.9031H1054.73ZM1063.44 31.3985C1057.03 31.3985 1051.79 36.6705 1051.79 43.2123C1051.79 49.6066 1057.05 54.8622 1063.44 54.8622C1069.98 54.8617 1075.25 49.6222 1075.25 43.2123C1075.25 36.6549 1070 31.399 1063.44 31.3985Z" fill="white"/>
<path d="M343.179 55.3886H364.272C356.391 91.5481 402.285 96.184 402.285 130.953C402.285 155.755 382.583 174.993 353.378 174.993C329.736 174.993 315.133 164.099 306.789 153.437C290.332 166.649 270.166 174.993 244.901 174.993C193.212 174.993 172.815 148.337 172.815 115.191C172.815 82.0447 192.054 55.3886 227.054 55.3886C262.285 55.3886 281.524 82.0447 281.524 115.191C281.524 117.972 281.524 120.522 281.292 123.072H192.517C195.299 142.079 206.656 156.682 245.133 156.682C302.848 156.682 329.968 97.8065 343.179 55.3886ZM227.054 73.4684C206.888 73.4684 195.53 87.8395 192.749 106.151H261.59C258.809 87.8395 247.451 73.4684 227.054 73.4684ZM351.987 155.755C368.676 155.755 380.497 145.556 380.497 132.344C380.497 114.496 360.332 107.31 351.292 91.3164C343.643 108.237 334.14 125.158 321.855 139.066C328.577 149.728 339.471 155.755 351.987 155.755Z" fill="white"/>
<path d="M516.032 123.072H427.257C430.039 141.847 442.323 156.914 463.184 156.914C478.946 156.914 490.535 146.715 495.866 134.893L513.946 141.615C506.065 161.318 488.217 174.993 463.184 174.993C427.952 174.993 407.555 148.337 407.555 115.191C407.555 82.0447 426.793 55.3886 461.793 55.3886C497.025 55.3886 516.264 82.0447 516.264 115.191C516.264 117.972 516.264 120.522 516.032 123.072ZM427.489 106.151H496.33C493.549 87.8395 482.191 73.4684 461.793 73.4684C441.628 73.4684 430.27 87.8395 427.489 106.151Z" fill="white"/>
<path d="M581.271 55.3886C607.232 55.3886 622.993 75.0909 622.993 96.8794V172.675H602.596V101.515C602.596 83.6672 592.629 73.4684 575.013 73.4684C557.165 73.4684 544.417 91.5482 544.417 109.164V172.675H524.02V57.7065H540.94L543.722 77.177H545.808C553.688 63.9649 566.437 55.3886 581.271 55.3886Z" fill="white"/>
<path d="M687.322 55.3886C695.202 55.3886 698.447 56.5475 703.547 57.9383V79.7268C703.547 79.7268 696.361 77.177 686.858 77.177C669.242 77.177 655.567 90.8528 655.567 114.264V172.675H635.169V57.9383H652.09L655.103 78.7996H656.262C663.447 64.8921 674.573 55.3886 687.322 55.3886Z" fill="white"/>
<path d="M758.573 55.3886C793.805 55.3886 813.043 82.0447 813.043 115.191C813.043 148.337 793.805 174.993 758.573 174.993C723.573 174.993 704.335 148.337 704.335 115.191C704.335 82.0447 723.573 55.3886 758.573 55.3886ZM758.573 155.755C782.215 155.755 792.414 137.675 792.414 115.191C792.414 92.9389 782.215 74.6273 758.573 74.6273C735.162 74.6273 724.732 92.9389 724.732 115.191C724.732 137.675 735.162 155.755 758.573 155.755Z" fill="white"/>
<path d="M894.094 128.171H914.491C914.491 156.45 899.193 174.53 875.319 174.53C862.803 174.53 851.677 168.503 843.101 157.377C840.087 162.245 836.611 167.576 833.134 172.907H808.564C816.213 161.086 824.558 148.569 832.207 135.82C827.803 122.376 825.485 105.919 825.485 88.5349C825.485 66.2828 827.571 49.5938 832.207 37.5406C836.379 26.6464 845.187 13.666 862.571 13.666C871.147 13.666 878.796 17.3747 884.127 24.0966C891.544 33.1365 893.631 46.8123 890.154 62.5741C885.982 80.6539 874.624 105.456 855.154 137.675C860.021 147.642 866.743 154.132 875.319 154.132C882.736 154.132 887.372 151.351 890.385 145.324C893.631 139.066 894.094 131.185 894.094 128.171ZM847.505 110.092C858.399 90.1574 866.975 71.8458 869.988 58.1701C872.074 48.8984 871.379 41.0175 868.134 36.8452C866.743 35.2227 864.889 34.2955 862.571 34.2955C860.253 34.2955 855.617 34.2955 851.445 44.9579C847.736 54.4614 845.882 69.0643 845.882 88.5349C845.882 95.7204 846.346 103.138 847.505 110.092Z" fill="white"/>
<path d="M82.6821 175.236C76.8772 175.236 71.1504 174.559 65.6318 173.128C47.9048 168.546 34.655 152.823 32.6506 134.002L30.8285 116.744L51.5491 114.557L53.3712 131.816C54.4645 142.046 61.4929 150.532 70.864 152.979C91.2202 158.264 117.199 148.788 132.635 130.436C140.887 120.622 152.835 99.9534 140.106 71.7614C127.351 43.5694 98.0924 38.7797 80.105 38.7276C78.439 91.4932 51.1847 101.359 41.5011 103.181C23.0973 106.617 4.92768 95.3718 0.997006 78.1391C-1.37181 67.7526 0.502418 57.6264 6.38541 48.9059C19.4529 29.5906 48.6336 21.9634 58.7857 19.8288C58.3952 14.8568 57.7965 9.57247 56.9635 3.92366L77.58 0.904023C78.4651 6.9433 79.1158 12.6181 79.5323 17.9546C102.492 17.9546 141.46 24.2021 159.083 63.1711C171.838 91.363 168.011 120.752 148.592 143.842C131.985 163.574 106.657 175.236 82.7341 175.236H82.6821ZM59.1241 41.0444C46.8375 44.0901 30.1777 50.8322 23.6179 60.5419C20.9107 64.5247 20.1818 68.6376 21.2751 73.4795C22.7068 79.753 30.3599 84.0482 37.6486 82.6946C47.7486 80.7943 57.6143 68.4814 59.1241 41.0444Z" fill="white"/>
</svg>
